<svg width="24" height="24" viewBox="0 0 24 24" fill="none" xmlns="http://www.w3.org/2000/svg"> <path fill-rule="evenodd" clip-rule="evenodd" d="M3.87694 11.0155C3.87694 7.07295 7.07298 3.87691 11.0155 3.87691C14.958 3.87691 18.154 7.07295 18.154 11.0155C18.154 12.9449 17.3886 14.6955 16.1448 15.9802C16.1139 16.0027 16.0843 16.0279 16.0564 16.0558C16.0285 16.0838 16.0032 16.1134 15.9807 16.1443C14.6959 17.3884 12.9451 18.154 11.0155 18.154C7.07298 18.154 3.87694 14.958 3.87694 11.0155ZM16.5634 17.6072C15.0645 18.87 13.1289 19.6309 11.0155 19.6309C6.2573 19.6309 2.40002 15.7737 2.40002 11.0155C2.40002 6.25727 6.2573 2.39999 11.0155 2.39999C15.7737 2.39999 19.631 6.25727 19.631 11.0155C19.631 13.1286 18.8702 15.064 17.6077 16.5628L21.3839 20.339C21.6722 20.6274 21.6722 21.0949 21.3839 21.3833C21.0955 21.6717 20.6279 21.6717 20.3395 21.3833L16.5634 17.6072Z" fill="#1f3fb7"/> <path d="M16.1448 15.9802L16.2919 16.1824C16.3035 16.1739 16.3144 16.1645 16.3245 16.1541L16.1448 15.9802ZM15.9807 16.1443L16.1546 16.3239C16.165 16.3139 16.1744 16.303 16.1829 16.2914L15.9807 16.1443ZM16.5634 17.6072L16.7402 17.4304C16.6484 17.3386 16.5016 17.3323 16.4023 17.416L16.5634 17.6072ZM17.6077 16.5628L17.4165 16.4017C17.3328 16.501 17.3391 16.6478 17.4309 16.7396L17.6077 16.5628ZM21.3839 20.339L21.5606 20.1622L21.3839 20.339ZM21.3839 21.3833L21.5606 21.5601L21.3839 21.3833ZM20.3395 21.3833L20.1627 21.5601L20.3395 21.3833ZM11.0155 3.62691C6.93491 3.62691 3.62694 6.93488 3.62694 11.0155H4.12694C4.12694 7.21102 7.21105 4.12691 11.0155 4.12691V3.62691ZM18.404 11.0155C18.404 6.93488 15.0961 3.62691 11.0155 3.62691V4.12691C14.8199 4.12691 17.904 7.21102 17.904 11.0155H18.404ZM16.3245 16.1541C17.6115 14.8246 18.404 13.0123 18.404 11.0155H17.904C17.904 12.8774 17.1657 14.5663 15.9652 15.8063L16.3245 16.1541ZM16.2332 16.2326C16.2518 16.214 16.2715 16.1972 16.2919 16.1824L15.9978 15.778C15.9563 15.8082 15.9168 15.8419 15.8796 15.8791L16.2332 16.2326ZM16.1829 16.2914C16.1978 16.2709 16.2145 16.2513 16.2332 16.2326L15.8796 15.8791C15.8424 15.9163 15.8087 15.9558 15.7785 15.9973L16.1829 16.2914ZM11.0155 18.404C13.0126 18.404 14.8251 17.6113 16.1546 16.3239L15.8068 15.9647C14.5668 17.1655 12.8776 17.904 11.0155 17.904V18.404ZM3.62694 11.0155C3.62694 15.096 6.93491 18.404 11.0155 18.404V17.904C7.21105 17.904 4.12694 14.8199 4.12694 11.0155H3.62694ZM16.4023 17.416C14.9468 18.6422 13.0677 19.3809 11.0155 19.3809V19.8809C13.19 19.8809 15.1822 19.0977 16.7245 17.7984L16.4023 17.416ZM11.0155 19.3809C6.39537 19.3809 2.65002 15.6356 2.65002 11.0155H2.15002C2.15002 15.9117 6.11923 19.8809 11.0155 19.8809V19.3809ZM2.65002 11.0155C2.65002 6.39534 6.39537 2.64999 11.0155 2.64999V2.14999C6.11923 2.14999 2.15002 6.1192 2.15002 11.0155H2.65002ZM11.0155 2.64999C15.6356 2.64999 19.381 6.39534 19.381 11.0155H19.881C19.881 6.1192 15.9118 2.14999 11.0155 2.14999V2.64999ZM19.381 11.0155C19.381 13.0674 18.6425 14.9463 17.4165 16.4017L17.7989 16.7238C19.098 15.1817 19.881 13.1897 19.881 11.0155H19.381ZM17.4309 16.7396L21.2071 20.5157L21.5606 20.1622L17.7844 16.386L17.4309 16.7396ZM21.2071 20.5157C21.3978 20.7065 21.3978 21.0158 21.2071 21.2065L21.5606 21.5601C21.9467 21.1741 21.9467 20.5482 21.5606 20.1622L21.2071 20.5157ZM21.2071 21.2065C21.0163 21.3973 20.7071 21.3973 20.5163 21.2065L20.1627 21.5601C20.5488 21.9461 21.1746 21.9461 21.5606 21.5601L21.2071 21.2065ZM20.5163 21.2065L16.7402 17.4304L16.3866 17.7839L20.1627 21.5601L20.5163 21.2065Z" fill="#1f3fb7"/> </svg>